<svg width="24" height="24" viewBox="0 0 24 24" fill="none" xmlns="http://www.w3.org/2000/svg">
<g clip-path="url(#clip0_7789_1712)">
<path d="M7.76822 8.47827C8.40403 8.89939 9.24627 8.92416 9.91511 8.52781C10.5674 8.13972 10.8234 7.56997 11.0133 6.76901C11.228 5.88548 11.1867 5.02673 10.8977 4.30009C10.7408 3.90374 10.5262 3.55693 10.2454 3.24316C9.81603 2.76423 9.26279 2.5 8.69304 2.5H8.66001C8.082 2.50826 7.52876 2.79726 7.10764 3.30096C6.51311 4.01934 6.24888 5.08453 6.40577 6.14972C6.5544 7.15711 7.04984 7.99935 7.76822 8.47827Z" fill="currentColor"/>
<path d="M13.7627 8.28852C14.5306 8.96561 15.7527 8.94084 16.5537 8.22246C17.817 7.08295 18.0152 4.79569 16.983 3.42498C16.5949 2.91303 16.0087 2.62402 15.3564 2.62402C15.3233 2.62402 15.2986 2.62402 15.2655 2.62402C14.5141 2.65705 13.8288 3.0534 13.4241 3.68921C13.3333 3.83784 13.2507 3.98647 13.1847 4.14336C12.7223 5.18378 12.8627 6.27374 13.0608 6.99212C13.226 7.60316 13.4407 7.983 13.7792 8.28026L13.7627 8.28852Z" fill="currentColor"/>
<path d="M5.4321 8.81686C5.00272 8.16453 4.25957 7.69387 3.47513 7.71038C2.71546 7.7269 2.12919 8.21408 1.78238 8.84163C1.65027 9.08109 1.55118 9.33707 1.49338 9.6013C1.27043 10.6004 1.49338 11.7564 2.18699 12.5326C2.6494 13.0446 3.14483 13.3006 3.71459 13.3253C4.34214 13.3418 4.86235 13.1767 5.23393 12.8134C6.2248 11.8555 6.14223 9.89856 5.4321 8.81686Z" fill="currentColor"/>
<path d="M22.5489 9.85721C22.4333 8.80028 21.7232 7.92501 20.8232 7.72683C20.6828 7.6938 20.5424 7.68555 20.4103 7.68555C19.6506 7.68555 18.9488 8.14795 18.4781 8.97368C17.9744 9.86547 17.8753 10.8233 18.1808 11.8224C18.4038 12.5408 18.9075 13.0693 19.5846 13.2592C20.2534 13.4491 20.9635 13.2757 21.5333 12.7885C22.2186 12.194 22.5572 11.3931 22.582 10.3444V10.2123C22.5737 10.0967 22.5655 9.97281 22.5489 9.84895V9.85721Z" fill="currentColor"/>
<path d="M17.5859 16.0007C17.4373 15.8603 17.2886 15.72 17.1565 15.5713C16.6281 14.9851 16.1161 14.3906 15.6042 13.796C15.4638 13.6309 15.3234 13.4575 15.1913 13.2841C14.9436 12.9703 14.7124 12.673 14.4316 12.4171C13.0114 11.0959 11.1535 11.0546 9.7002 12.3097C9.36166 12.5987 9.08091 12.9538 8.78365 13.3254C8.65153 13.4905 8.51941 13.6557 8.3873 13.8125L7.85883 14.4318C7.56157 14.7869 7.26431 15.1337 6.95879 15.4805C6.8019 15.6622 6.6285 15.8273 6.46335 16.0007C6.1826 16.2815 5.91837 16.5457 5.71194 16.8512C5.12567 17.71 5.01007 18.7834 5.40642 19.7165C5.79451 20.6331 6.5707 21.2524 7.54505 21.4258C8.43684 21.5826 9.26257 21.4505 9.98095 21.0459C10.559 20.7156 11.2278 20.5505 11.9297 20.5505C12.6315 20.5505 13.4077 20.7321 14.1178 21.0872C14.4399 21.2441 14.8115 21.3432 15.1418 21.4175C15.8766 21.5826 16.5785 21.5414 17.173 21.2854C17.7098 21.0542 18.1226 20.6909 18.3951 20.2037C19.0557 19.0311 18.9401 17.5531 18.0979 16.5292C17.9492 16.3475 17.7758 16.1906 17.6024 16.0255L17.5859 16.0007Z" fill="currentColor"/>
</g>
<defs>
<clipPath id="clip0_7789_1712">
<rect width="21.1717" height="19" fill="white" transform="translate(1.41016 2.5)"/>
</clipPath>
</defs>
</svg>
