<svg width="24" height="24" viewBox="0 0 24 24" fill="none" xmlns="http://www.w3.org/2000/svg">
<g id="Iconly-Heart-o">
<path id="favorite" d="M17.0947 15.5947C16.0072 16.6822 14.6261 17.9808 12.9489 19.4919C12.9486 19.4922 12.9483 19.4925 12.948 19.4928L12 20.3427L11.052 19.4928C11.0517 19.4925 11.0514 19.4922 11.0511 19.4919C9.3739 17.9808 7.99282 16.6822 6.90533 15.5947C5.82128 14.5106 4.97317 13.5514 4.35206 12.7153C3.73036 11.8784 3.32045 11.1411 3.09489 10.5008C2.86435 9.84637 2.75 9.18058 2.75 8.5C2.75 7.12008 3.20436 6.0063 4.10533 5.10533C5.0063 4.20436 6.12008 3.75 7.5 3.75C8.25701 3.75 8.97345 3.90928 9.65704 4.22927C10.3418 4.5498 10.9307 5.00002 11.4285 5.58574L12 6.25804L12.5715 5.58574C13.0693 5.00002 13.6582 4.5498 14.343 4.22927C15.0266 3.90928 15.743 3.75 16.5 3.75C17.8799 3.75 18.9937 4.20436 19.8947 5.10533C20.7956 6.0063 21.25 7.12008 21.25 8.5C21.25 9.18058 21.1356 9.84638 20.9051 10.5008C20.6796 11.1411 20.2696 11.8784 19.6479 12.7153C19.0268 13.5514 18.1787 14.5106 17.0947 15.5947Z" stroke="currentColor" stroke-width="1.5"/>
</g>
</svg>
