<svg viewBox="0 0 30 30" fill="none" xmlns="http://www.w3.org/2000/svg">
<circle cx="15" cy="15" r="15" fill="currentColor"/>
<path d="M15 9.3418C14.0039 9.3418 13.3477 9.35352 13.0312 9.37695C12.7148 9.38867 12.3574 9.39453 11.959 9.39453C11.6074 9.40625 11.3203 9.44727 11.0977 9.51758C10.875 9.57617 10.6992 9.63477 10.5703 9.69336C10.3828 9.74023 10.2246 9.80469 10.0957 9.88672C9.9668 9.96875 9.83789 10.0801 9.70898 10.2207C9.60352 10.3496 9.50391 10.4844 9.41016 10.625C9.31641 10.7539 9.24023 10.9062 9.18164 11.082C9.11133 11.2109 9.04688 11.3867 8.98828 11.6094C8.94141 11.8203 8.90625 12.1074 8.88281 12.4707C8.87109 12.8574 8.85938 13.2148 8.84766 13.543C8.84766 13.8594 8.84766 14.5098 8.84766 15.4941C8.84766 16.4902 8.84766 17.1523 8.84766 17.4805C8.85938 17.7969 8.87109 18.1484 8.88281 18.5352C8.90625 18.8984 8.94727 19.1914 9.00586 19.4141C9.07617 19.625 9.13477 19.7949 9.18164 19.9238C9.24023 20.1113 9.31055 20.2695 9.39258 20.3984C9.47461 20.5273 9.58008 20.6562 9.70898 20.7852C9.83789 20.9023 9.97266 21.0078 10.1133 21.1016C10.2539 21.1836 10.4062 21.2539 10.5703 21.3125C10.6992 21.3828 10.875 21.4473 11.0977 21.5059C11.3203 21.5527 11.6074 21.5762 11.959 21.5762C12.3574 21.5996 12.7148 21.6113 13.0312 21.6113C13.3477 21.6113 14.0039 21.6113 15 21.6113C15.9961 21.6113 16.6523 21.6113 16.9688 21.6113C17.2852 21.6113 17.6426 21.5996 18.041 21.5762C18.3926 21.5527 18.6797 21.5117 18.9023 21.4531C19.125 21.3945 19.3008 21.3477 19.4297 21.3125C19.6172 21.2539 19.7754 21.1836 19.9043 21.1016C20.0332 21.0195 20.1621 20.9141 20.291 20.7852C20.3965 20.6562 20.4961 20.5215 20.5898 20.3809C20.6836 20.2402 20.7598 20.0879 20.8184 19.9238C20.8887 19.7949 20.9473 19.625 20.9941 19.4141C21.0527 19.1914 21.082 18.8984 21.082 18.5352C21.0938 18.1484 21.0996 17.7969 21.0996 17.4805C21.1113 17.1523 21.1172 16.4902 21.1172 15.4941C21.1172 14.5098 21.1113 13.8594 21.0996 13.543C21.0996 13.2148 21.0938 12.8574 21.082 12.4707C21.0586 12.1074 21.0176 11.8203 20.959 11.6094C20.9004 11.3867 20.8535 11.2109 20.8184 11.082C20.7598 10.8945 20.6895 10.7363 20.6074 10.6074C20.5254 10.4785 20.4199 10.3496 20.291 10.2207C20.1621 10.1035 20.0273 9.99805 19.8867 9.9043C19.7461 9.81055 19.5938 9.74023 19.4297 9.69336C19.3008 9.61133 19.125 9.54688 18.9023 9.5C18.6797 9.44141 18.3926 9.40625 18.041 9.39453C17.6426 9.37109 17.2852 9.35938 16.9688 9.35938C16.6523 9.34766 15.9961 9.3418 15 9.3418ZM15 8.00586C16.0078 8.00586 16.6699 8.00586 16.9863 8.00586C17.3145 8.00586 17.6777 8.01758 18.0762 8.04102C18.4746 8.05273 18.8203 8.09375 19.1133 8.16406C19.418 8.23438 19.6816 8.30469 19.9043 8.375C20.1504 8.49219 20.3848 8.60938 20.6074 8.72656C20.8418 8.84375 21.0586 9.01367 21.2578 9.23633C21.4688 9.45898 21.6387 9.68164 21.7676 9.9043C21.8965 10.1152 22.0137 10.3438 22.1191 10.5898C22.2129 10.8359 22.2891 11.1055 22.3477 11.3984C22.4062 11.6914 22.4473 12.0312 22.4707 12.418C22.4824 12.8164 22.4883 13.1797 22.4883 13.5078C22.5 13.8242 22.5059 14.4863 22.5059 15.4941C22.5059 16.5137 22.5 17.1875 22.4883 17.5156C22.4883 17.832 22.4824 18.1836 22.4707 18.5703C22.4473 18.9688 22.4004 19.3203 22.3301 19.625C22.2715 19.9297 22.2012 20.1934 22.1191 20.416C22.0254 20.6738 21.9082 20.9141 21.7676 21.1367C21.6387 21.3477 21.4688 21.5586 21.2578 21.7695C21.0352 21.9688 20.8125 22.1328 20.5898 22.2617C20.3789 22.3906 20.1504 22.5137 19.9043 22.6309C19.6699 22.7246 19.4062 22.8008 19.1133 22.8594C18.8203 22.9062 18.4746 22.9414 18.0762 22.9648C17.6777 22.9766 17.3145 22.9883 16.9863 23C16.6699 23 16.0078 23 15 23C13.9922 23 13.3242 23 12.9961 23C12.6797 22.9883 12.3223 22.9766 11.9238 22.9648C11.5254 22.9414 11.1738 22.9004 10.8691 22.8418C10.5762 22.7715 10.3184 22.7012 10.0957 22.6309C9.82617 22.5371 9.58008 22.4199 9.35742 22.2793C9.14648 22.1387 8.94141 21.9688 8.74219 21.7695C8.53125 21.5352 8.36133 21.3125 8.23242 21.1016C8.10352 20.8906 7.98633 20.6621 7.88086 20.416C7.78711 20.1699 7.71094 19.9004 7.65234 19.6074C7.59375 19.3145 7.55273 18.9688 7.5293 18.5703C7.51758 18.1836 7.50586 17.832 7.49414 17.5156C7.49414 17.1875 7.49414 16.5137 7.49414 15.4941C7.49414 14.4863 7.49414 13.8242 7.49414 13.5078C7.50586 13.1797 7.51758 12.8164 7.5293 12.418C7.55273 12.0312 7.59375 11.6855 7.65234 11.3809C7.72266 11.0762 7.79883 10.8125 7.88086 10.5898C7.98633 10.3438 8.10352 10.1094 8.23242 9.88672C8.36133 9.66406 8.53125 9.44727 8.74219 9.23633C8.94141 9.02539 9.15234 8.86133 9.375 8.74414C9.60938 8.61523 9.84961 8.49219 10.0957 8.375C10.3301 8.28125 10.5938 8.20508 10.8867 8.14648C11.1797 8.08789 11.5254 8.05273 11.9238 8.04102C12.3223 8.01758 12.6797 8.00586 12.9961 8.00586C13.3242 8.00586 13.9922 8.00586 15 8.00586ZM15 11.6797C15.5391 11.6797 16.0371 11.7793 16.4941 11.9785C16.9629 12.1777 17.3672 12.4473 17.707 12.7871C18.0586 13.127 18.334 13.5312 18.5332 14C18.7324 14.4688 18.832 14.9668 18.832 15.4941C18.832 16.0332 18.7324 16.5371 18.5332 17.0059C18.334 17.4629 18.0586 17.8672 17.707 18.2188C17.3672 18.5586 16.9629 18.8281 16.4941 19.0273C16.0371 19.2266 15.5391 19.3262 15 19.3262C14.4609 19.3262 13.957 19.2266 13.4883 19.0273C13.0312 18.8281 12.627 18.5527 12.2754 18.2012C11.9355 17.8496 11.666 17.4453 11.4668 16.9883C11.2676 16.5195 11.168 16.0215 11.168 15.4941C11.168 14.9785 11.2676 14.4863 11.4668 14.0176C11.666 13.5488 11.9355 13.1445 12.2754 12.8047C12.627 12.4531 13.0312 12.1777 13.4883 11.9785C13.957 11.7793 14.4609 11.6797 15 11.6797ZM15 18.0078C15.6914 18.0078 16.2832 17.7676 16.7754 17.2871C17.2676 16.7949 17.5137 16.1973 17.5137 15.4941C17.5137 14.8027 17.2676 14.2109 16.7754 13.7188C16.2832 13.2266 15.6914 12.9805 15 12.9805C14.3086 12.9805 13.7168 13.2266 13.2246 13.7188C12.7324 14.2109 12.4863 14.8027 12.4863 15.4941C12.4863 16.1973 12.7324 16.7949 13.2246 17.2871C13.7168 17.7676 14.3086 18.0078 15 18.0078ZM19.9043 11.4863C19.9043 11.2402 19.8164 11.0293 19.6406 10.8535C19.4648 10.6777 19.2539 10.5898 19.0078 10.5898C18.7617 10.5898 18.5508 10.6777 18.375 10.8535C18.1992 11.0293 18.1113 11.2402 18.1113 11.4863C18.1113 11.7324 18.1992 11.9434 18.375 12.1191C18.5508 12.2949 18.7617 12.3828 19.0078 12.3828C19.2539 12.3828 19.4648 12.2949 19.6406 12.1191C19.8164 11.9434 19.9043 11.7324 19.9043 11.4863Z" fill="#97999B"/>
</svg>
