<svg width="186" height="22" viewBox="0 0 186 22" fill="none" xmlns="http://www.w3.org/2000/svg">
<g clip-path="url(#clip0_7554_6377)">
<path d="M0 21.2731V0.789917H8.61758L12.1912 13.3938L15.7947 0.789917H23.9438V21.2731H18.1971V8.09026L14.3593 21.2731H9.72904L5.86135 7.97252V21.2731H0Z" fill="#E5262E"/>
<path d="M26.4609 21.2731V0.789917H42.6096V5.63719H32.4967V8.55144H41.2888V13.1976H32.4967V16.4307H42.8986V21.278H26.4609V21.2731Z" fill="#E5262E"/>
<path d="M55.2594 0C48.5358 0 44.3491 4.56272 44.3491 10.5924V11.0634C44.3491 17.093 48.5358 21.6557 55.2594 21.6557C61.983 21.6557 66.1996 17.0979 66.1996 11.0634V10.5924C66.1996 4.56272 62.0129 0 55.2594 0ZM55.9871 6.16212C56.027 6.0689 56.0768 5.98059 56.1316 5.89228C56.3759 5.51451 56.7895 5.27901 57.2431 5.25939C57.263 5.25939 57.278 5.25939 57.2979 5.25939C57.6917 5.25939 58.0505 5.4311 58.2798 5.73528C58.9078 6.54971 58.7832 7.90871 58.0206 8.58576C57.5421 9.01259 56.7995 9.02731 56.336 8.625C56.1316 8.44838 56.002 8.2178 55.9024 7.85965C55.7827 7.42791 55.698 6.7852 55.9771 6.16703L55.9871 6.16212ZM52.3237 5.65679C52.5779 5.35751 52.9069 5.1858 53.2608 5.18089H53.2807C53.6246 5.18089 53.9585 5.33789 54.2177 5.62244C54.3872 5.80888 54.5168 6.01494 54.6115 6.25043C54.7859 6.68217 54.8108 7.1875 54.6812 7.71737C54.5666 8.19326 54.4121 8.53179 54.0184 8.76238C53.6146 8.99787 53.1063 8.98315 52.7225 8.73294C52.2889 8.44838 51.9898 7.94796 51.9001 7.34941C51.8054 6.71651 51.9649 6.08362 52.3237 5.65679ZM49.3582 11.1419C48.9395 10.6856 48.8 9.99382 48.9395 9.40018C48.9744 9.24318 49.0342 9.09109 49.114 8.94881C49.3233 8.57594 49.6821 8.28158 50.1357 8.27667C50.6092 8.26686 51.0578 8.54651 51.3169 8.93409C51.7456 9.5768 51.8004 10.7396 51.1973 11.3087C50.9681 11.5245 50.659 11.6178 50.2802 11.6128C49.9363 11.5981 49.6373 11.446 49.3582 11.1419ZM59.1271 15.6899C58.9626 15.9793 58.7134 16.1952 58.3894 16.3326C58.0306 16.4847 57.6069 16.5141 57.1633 16.4111C56.964 16.3669 56.7397 16.3129 56.5453 16.2148C56.1117 16.0038 55.6581 15.8959 55.2245 15.8959C54.7909 15.8959 54.4021 15.994 54.0483 16.1903C53.6146 16.4356 53.1162 16.5092 52.5779 16.416C51.9898 16.3129 51.5213 15.945 51.287 15.4004C51.0478 14.846 51.1176 14.2082 51.4715 13.698C51.5961 13.5164 51.7556 13.3594 51.925 13.1926C52.0247 13.0896 52.1294 12.9915 52.2241 12.8835C52.4085 12.6775 52.5879 12.4714 52.7673 12.2605L53.0863 11.8925C53.1711 11.7993 53.2458 11.7012 53.3256 11.603C53.505 11.3823 53.6794 11.1713 53.8788 10.9996C54.761 10.2538 55.8824 10.2784 56.7347 11.0634C56.8992 11.2155 57.0387 11.3921 57.1933 11.5785C57.273 11.6815 57.3577 11.7846 57.4425 11.8827C57.7515 12.2359 58.0605 12.5892 58.3795 12.9375C58.4642 13.0258 58.5489 13.1092 58.6387 13.1926C58.7433 13.2907 58.848 13.384 58.9377 13.4919C59.4461 14.1003 59.5159 14.9785 59.1171 15.6751L59.1271 15.6899ZM61.031 11.2989C60.6871 11.5932 60.2635 11.6913 59.8548 11.5785C59.4511 11.4657 59.1421 11.1517 59.0075 10.7248C58.8231 10.1312 58.8829 9.56208 59.1869 9.03222C59.466 8.5416 59.8897 8.26686 60.3532 8.26686C60.4329 8.26686 60.5177 8.27667 60.6024 8.29139C61.1457 8.40913 61.5743 8.92428 61.6441 9.55717C61.6541 9.63076 61.6541 9.70436 61.659 9.77304V9.85154C61.6491 10.4746 61.4447 10.9505 61.031 11.3038V11.2989Z" fill="#E5262E"/>
<path d="M71.1637 21.2731L66.2344 0.789917H72.2752L74.6675 13.4821L77.5633 0.789917H83.4097L86.1909 13.6293L88.668 0.789917H94.3499L89.3359 21.2731H82.9612L80.3744 9.33152L77.7278 21.2731H71.1587H71.1637Z" fill="#E5262E"/>
<path d="M101.148 21.2731V5.63719H95.167V0.789917H113.254V5.63719H107.303V21.2731H101.148Z" fill="#E5262E"/>
<path d="M114.715 21.2731V0.789917H120.9V21.2731H114.715Z" fill="#E5262E"/>
<path d="M123.108 21.2731V0.789917H131.726L135.3 13.3938L138.903 0.789917H147.052V21.2731H141.306V8.09026L137.468 21.2731H132.837L128.97 7.97252V21.2731H123.108Z" fill="#E5262E"/>
<path d="M149.195 21.2731V0.789917H165.344V5.63719H155.231V8.55144H164.023V13.1976H155.231V16.4307H165.633V21.278H149.19L149.195 21.2731Z" fill="#E5262E"/>
<path d="M166.57 14.4339H172.636C172.93 16.048 174.101 17.0292 176.209 17.0292C177.969 17.0292 178.935 16.3375 178.935 15.5279V15.3562C178.935 14.3456 178.317 13.9727 174.629 13.3349C169.735 12.4959 167.243 10.769 167.243 7.07466V6.78519C167.243 2.74744 171.08 0.412109 175.83 0.412109C181.049 0.412109 184.418 2.86518 184.737 7.27581H178.701C178.557 5.69112 177.53 4.96992 175.741 4.96992C174.131 4.96992 173.368 5.69112 173.368 6.4712V6.61348C173.368 7.53583 173.897 7.93814 177.53 8.45819C181.926 9.09108 185.091 10.823 185.091 14.6596V14.949C185.091 19.2468 181.133 21.641 176.124 21.641C170.203 21.641 166.894 18.8739 166.57 14.429V14.4339Z" fill="#E5262E"/>
</g>
<defs>
<clipPath id="clip0_7554_6377">
<rect width="185.096" height="21.6557" fill="white"/>
</clipPath>
</defs>
</svg>
