<svg xmlns="http://www.w3.org/2000/svg" width="44" height="44" viewBox="0 0 44 44" fill="none">
  <g opacity="0.8">
    <mask id="mask0_7164_61893" style="mask-type:alpha" maskUnits="userSpaceOnUse" x="9" y="10" width="25" height="24">
      <rect x="9.00391" y="10" width="24" height="24" fill="white"/>
    </mask>
    <g mask="url(#mask0_7164_61893)">
      <path d="M26.0986 26.435C25.0111 27.5225 23.63 28.8211 21.9529 30.3323C21.9525 30.3326 21.9522 30.3328 21.9519 30.3331L21.0039 31.183L20.0559 30.3331C20.0556 30.3328 20.0553 30.3326 20.055 30.3323C18.3778 28.8211 16.9967 27.5225 15.9092 26.435C14.8252 25.3509 13.9771 24.3917 13.356 23.5556C12.7343 22.7187 12.3244 21.9814 12.0988 21.3411C11.8683 20.6867 11.7539 20.0209 11.7539 19.3403C11.7539 17.9604 12.2083 16.8466 13.1092 15.9457C14.0102 15.0447 15.124 14.5903 16.5039 14.5903C17.2609 14.5903 17.9774 14.7496 18.661 15.0696C19.3457 15.3901 19.9346 15.8404 20.4325 16.4261L21.0039 17.0984L21.5754 16.4261C22.0732 15.8404 22.6621 15.3901 23.3469 15.0696C24.0305 14.7496 24.7469 14.5903 25.5039 14.5903C26.8838 14.5903 27.9976 15.0447 28.8986 15.9457C29.7995 16.8466 30.2539 17.9604 30.2539 19.3403C30.2539 20.0209 30.1396 20.6867 29.909 21.3411C29.6835 21.9814 29.2735 22.7187 28.6518 23.5556C28.0307 24.3917 27.1826 25.3509 26.0986 26.435Z" stroke="#4B4D4E" stroke-width="1.5"/>
    </g>
  </g>
</svg>