<svg xmlns="http://www.w3.org/2000/svg" width="45" height="44" viewBox="0 0 45 44" fill="none">
  <g opacity="0.8">
    <mask id="mask0_4360_21980" style="mask-type:alpha" maskUnits="userSpaceOnUse" x="9" y="10" width="25" height="24">
      <rect x="9.33594" y="10" width="24" height="24" fill="white"/>
    </mask>
    <g mask="url(#mask0_4360_21980)">
      <path d="M21.3359 32.1903L19.8859 30.8903C18.2026 29.3737 16.8109 28.0653 15.7109 26.9653C14.6109 25.8653 13.7359 24.8778 13.0859 24.0028C12.4359 23.1278 11.9818 22.3237 11.7234 21.5903C11.4651 20.857 11.3359 20.107 11.3359 19.3403C11.3359 17.7737 11.8609 16.4653 12.9109 15.4153C13.9609 14.3653 15.2693 13.8403 16.8359 13.8403C17.7026 13.8403 18.5276 14.0237 19.3109 14.3903C20.0943 14.757 20.7693 15.2737 21.3359 15.9403C21.9026 15.2737 22.5776 14.757 23.3609 14.3903C24.1443 14.0237 24.9693 13.8403 25.8359 13.8403C27.4026 13.8403 28.7109 14.3653 29.7609 15.4153C30.8109 16.4653 31.3359 17.7737 31.3359 19.3403C31.3359 20.107 31.2068 20.857 30.9484 21.5903C30.6901 22.3237 30.2359 23.1278 29.5859 24.0028C28.9359 24.8778 28.0609 25.8653 26.9609 26.9653C25.8609 28.0653 24.4693 29.3737 22.7859 30.8903L21.3359 32.1903Z" fill="#EF474A"/>
    </g>
  </g>
</svg>