<svg xmlns="http://www.w3.org/2000/svg" width="50" height="43" viewBox="0 0 50 43" fill="none">
  <path d="M1.57927 0.00230341C1.36081 0.0138748 1.14672 0.0692444 0.949229 0.16525C0.751741 0.261256 0.574721 0.396017 0.428278 0.561838C0.281836 0.727659 0.168839 0.921292 0.0957411 1.13168C0.0226434 1.34206 -0.00912346 1.56508 0.00225463 1.788C0.0136327 2.01091 0.0679329 2.22935 0.162054 2.43085C0.256176 2.63235 0.388274 2.81296 0.550807 2.96236C0.713339 3.11176 0.903121 3.22703 1.10932 3.30158C1.31551 3.37613 1.53408 3.40851 1.75253 3.39686H7.12379L14.0025 29.298C14.098 29.6592 14.3077 29.9781 14.5991 30.2051C14.8905 30.4321 15.2472 30.5545 15.6138 30.5533H42.782C43.0024 30.5565 43.2212 30.5149 43.4258 30.4311C43.6303 30.3472 43.8165 30.2227 43.9734 30.0647C44.1304 29.9068 44.2551 29.7186 44.3401 29.5111C44.4252 29.3036 44.469 29.0809 44.469 28.856C44.469 28.6311 44.4252 28.4084 44.3401 28.2009C44.2551 27.9934 44.1304 27.8052 43.9734 27.6473C43.8165 27.4894 43.6303 27.3649 43.4258 27.281C43.2212 27.1971 43.0024 27.1556 42.782 27.1587H16.896L16.2896 24.8957H43.8909C44.2552 24.898 44.6102 24.7781 44.9013 24.5545C45.1924 24.3309 45.4036 24.016 45.5023 23.6581L49.9379 7.25109C50.0077 6.99792 50.0188 6.73166 49.9705 6.47333C49.9222 6.21499 49.8157 5.97165 49.6594 5.76249C49.5032 5.55334 49.3015 5.38409 49.0701 5.2681C48.8388 5.15211 48.5842 5.09256 48.3265 5.09414H11.0396L10.0173 1.25758C9.92184 0.896408 9.71209 0.57754 9.42069 0.350538C9.12929 0.123536 8.77257 0.00111552 8.40596 0.00230341H1.75253C1.69482 -0.000767804 1.63698 -0.000767804 1.57927 0.00230341ZM11.9406 8.48869H46.126L42.6087 21.5012H15.3886L11.9406 8.48869ZM20.0495 32.8163C17.3132 32.8163 15.0594 35.1161 15.0594 37.9082C15.0594 40.7002 17.3132 43 20.0495 43C22.7857 43 25.0395 40.7002 25.0395 37.9082C25.0395 35.1161 22.7857 32.8163 20.0495 32.8163ZM38.9008 32.8163C36.1646 32.8163 33.9108 35.1161 33.9108 37.9082C33.9108 40.7002 36.1646 43 38.9008 43C41.6371 43 43.8909 40.7002 43.8909 37.9082C43.8909 35.1161 41.6371 32.8163 38.9008 32.8163ZM20.0495 36.2109C20.9878 36.2109 21.7128 36.9507 21.7128 37.9082C21.7128 38.8657 20.9878 39.6054 20.0495 39.6054C19.1111 39.6054 18.3861 38.8657 18.3861 37.9082C18.3861 36.9507 19.1111 36.2109 20.0495 36.2109ZM38.9008 36.2109C39.8392 36.2109 40.5642 36.9507 40.5642 37.9082C40.5642 38.8657 39.8392 39.6054 38.9008 39.6054C37.9625 39.6054 37.2375 38.8657 37.2375 37.9082C37.2375 36.9507 37.9625 36.2109 38.9008 36.2109Z" fill="#CBCCCD"/>
</svg>